inDegrees=yes
name=ik_lifting_orientations
DataType=double
version=3
OpenSimVersion=4.5-2024-01-10-34fd6af
endheader
time	pelvis_tilt	pelvis_list	pelvis_rotation	pelvis_tx	pelvis_ty	pelvis_tz	hip_flexion_r	hip_adduction_r	hip_rotation_r	knee_angle_r	knee_angle_r_beta	ankle_angle_r	subtalar_angle_r	mtp_angle_r	hip_flexion_l	hip_adduction_l	hip_rotation_l	knee_angle_l	knee_angle_l_beta	ankle_angle_l	subtalar_angle_l	mtp_angle_l	lumbar_extension	lumbar_bending	lumbar_rotation	arm_flex_r	arm_add_r	arm_rot_r	elbow_flex_r	pro_sup_r	wrist_flex_r	wrist_dev_r	arm_flex_l	arm_add_l	arm_rot_l	elbow_flex_l	pro_sup_l	wrist_flex_l	wrist_dev_l
0.02	0.002520367103129031	0.01678446540265719	88.77762496485261	0	0.9400000009320483	0	16.10281311454558	-7.62841656469628	0	22.48389126808373	0.3924179312884641	-4.431223991079036	0	0	16.10281311454558	-7.62841656469628	0	22.48389126808373	0.3924179312884641	-4.431223991079036	0	0	-0.01883545840343556	-0.003109904864688753	-0.004841645614138844	-0.3017037627178599	-0.07005751193573431	-0.01086671881532885	0.6254051324077027	-58.37657749217195	0	0	0	-2.387490015640624	0	31.84880375748309	-2.188241023129752e-05	0	0
0.03	-0.002709958228763206	0.01712042150395526	88.77114541271345	0	0.9400000009320483	0	16.10629722321669	-7.629272337134769	0	22.48883696395718	0.3925042499652582	-4.431490896436096	0	0	16.10629722321669	-7.629272337134769	0	22.48883696395718	0.3925042499652582	-4.431490896436096	0	0	-0.008869614169028222	0.001477575371411299	-0.0003592322215472966	-0.3725447847339828	-0.07664608836976909	-0.0010130474676443	0.3846303304382692	-58.36940450994105	0	0	0	-2.388162939234023	0	31.85590966111387	-2.188836251173843e-05	0	0
0.04	0.0009100866224875626	-0.002588341470668188	88.77071578789942	0	0.9400000009320483	0	16.11734091164478	-7.631976153607599	0	22.50452240935307	0.3927780126320582	-4.432333400549945	0	0	16.11734091164478	-7.631976153607599	0	22.50452240935307	0.3927780126320582	-4.432333400549945	0	0	0.2369387092472986	-0.3688963373244356	-0.3351770494722126	-0.600924657435334	0.3055478231204282	0.3455412516289177	0.3264280421128193	-58.34670318542556	0	0	0	-2.390303149031493	0	31.87839963791969	-2.190727534277743e-05	0	0
0.05	0.00536253845260823	-0.005807264564234639	88.76930109707959	0	0.9400000009320483	0	16.12745314346906	-7.634441739857592	0	22.51889449384358	0.3930288528267924	-4.433100728863727	0	0	16.12745314346906	-7.634441739857592	0	22.51889449384358	0.3930288528267924	-4.433100728863727	0	0	0.4711681884588313	-0.7353766287764876	-0.6664647441336313	-0.8834361299285824	0.6846921775236076	0.7777141000439218	0.326234193775741	-58.3259570071486	0	0	0	-2.392270969465567	0	31.89895376912511	-2.192464458855447e-05	0	0
0.06	-0.00104140626557723	0.01169066350330324	88.75693355147955	0	0.9400000009320483	0	16.13082393787642	-7.635267078949155	0	22.52367734411301	0.3931123293116239	-4.43335784361844	0	0	16.13082393787642	-7.635267078949155	0	22.52367734411301	0.3931123293116239	-4.43335784361844	0	0	0.4691471249712487	-0.7326975485290246	-0.6350723971725378	-0.9556719829081521	0.6914617261268612	0.9745108552325182	0.304075945385258	-58.31902942988667	0	0	0	-2.39292382099133	0	31.90581689652315	-2.193041517943898e-05	0	0
0.07000000000000001	0.001479978295669116	-0.002935366634125726	88.77144313007699	0	0.9400000009320483	0	16.14137677888559	-7.637849285397347	0	22.53864756497978	0.3933736089554997	-4.434162037544715	0	0	16.14137677888559	-7.637849285397347	0	22.53864756497978	0.3933736089554997	-4.434162037544715	0	0	0.05768207826721249	-0.1379334127978955	-1.52822946823536	-0.6260532385340873	0.04471406331386243	1.944142574817785	0.3043485424738782	-58.29734961065667	0	0	0	-2.394968552297113	0	31.92729525146598	-2.194848702751064e-05	0	0
0.08	-0.003516166058351007	0.01360289592281183	88.76731304795163	0	0.9400000009320483	0	16.1446531852183	-7.638652135684021	0	22.54329160063105	0.3934546626681945	-4.434412134549973	0	0	16.1446531852183	-7.638652135684021	0	22.54329160063105	0.3934546626681945	-4.434412134549973	0	0	0.05039558751452764	-0.1416300215232313	-1.516500807512258	-0.7107895512019857	0.01400683468607797	2.000762887120353	0.2912405354117296	-58.29061488139937	0	0	0	-2.395602215172003	0	31.93396730374663	-2.195409073343225e-05	0	0
0.09	-0.006264415974771702	0.01576888637818202	88.76499945248332	0	0.9400000009320483	0	16.14778768047286	-7.639419303484011	0	22.54773537912353	0.3935322212341175	-4.434651036948506	0	0	16.14778768047286	-7.639419303484011	0	22.54773537912353	0.3935322212341175	-4.434651036948506	0	0	0.04199524498871575	-0.1490427847700006	-1.51169876292232	-0.8164368847961906	-0.04909503673829697	2.062171314271461	0.2955812037623663	-58.28417557573471	0	0	0	-2.396209215700228	0	31.94034678114189	-2.195945666146448e-05	0	0
0.1	-0.006208397882909135	0.01570469025452203	88.76240762447566	0	0.9400000009320483	0	16.15114560158756	-7.640241424263015	0	22.55249449554269	0.3936152834851175	-4.434907057584172	0	0	16.15114560158756	-7.640241424263015	0	22.55249449554269	0.3936152834851175	-4.434907057584172	0	0	0.04767627905361883	-0.146548784657096	-1.504120824587476	-0.8870989467256177	-0.08790456331064136	2.157845207739562	0.2766549253397301	-58.27727654673723	0	0	0	-2.396859147407844	0	31.94718169350317	-2.196520307297704e-05	0	0
0.11	-0.006610297471501882	0.0141752516721668	88.7574172692558	0	0.9400000009320483	0	16.15452043145524	-7.641067111795189	0	22.5572777103981	0.3936987663331748	-4.435164131877714	0	0	16.15452043145524	-7.641067111795189	0	22.5572777103981	0.3936987663331748	-4.435164131877714	0	0	0.05329912859493709	-0.1472702556092075	-1.491235023872149	-0.9452450214108941	-0.1393704541620241	2.314688525618132	0.254351880018451	-58.27034524788655	0	0	0	-2.397512802118805	0	31.95404864284192	-2.197098130273099e-05	0	0
0.12	-0.6624776395353371	-0.6683621436102317	88.19142183775372	0	0.9400000009320483	0	16.16456347818266	-7.643489984052872	0	22.57156848440034	0.3939481873921722	-4.435915737512027	0	0	16.16456347818266	-7.643489984052872	0	22.57156848440034	0.3939481873921722	-4.435915737512027	0	0	1.458104685861711	-0.3995710663691648	-1.208455505271539	-1.66327386058532	-0.5523690385340211	2.756107791902402	0.2486070279375831	-58.24984773342059	0	0	0	-2.399488110403731	0	31.9743592998335	-2.198836486247275e-05	0	0
